<svg width="548" height="548" viewBox="0 0 548 548" fill="none" xmlns="http://www.w3.org/2000/svg">
<path d="M548 274C548 425.326 425.326 548 274 548C212.815 548 156.326 527.948 110.718 494.062C100.452 486.423 90.7336 478.091 81.6413 469.122C72.8283 460.444 64.6083 451.161 57.037 441.365C21.2714 395.075 0 337.02 0 274C0 210.98 21.2714 152.925 57.037 106.636C72.4259 86.7178 90.4981 68.9699 110.718 53.9384C156.326 20.0523 212.815 0 274 0C425.326 0 548 122.674 548 274Z" fill="#094458"/>
<path d="M110.717 0V494.062C100.45 486.423 90.7318 478.091 81.6395 469.122C72.8265 460.444 64.6065 451.161 57.0352 441.365V0H110.717Z" fill="#E89435"/>
<path d="M110.719 0H81.6426V86.416H110.719V0Z" fill="#FDBC69"/>
<path d="M110.72 120.974V494.062C100.453 486.423 90.7349 478.092 81.6426 469.122V120.974H110.72Z" fill="#FDBC69"/>
<path d="M513.33 52.865H7.82812V104.399H513.33V52.865Z" fill="#FDBC69"/>
<path d="M513.328 88.4622H7.82617V104.4H513.328V88.4622Z" fill="#E89435"/>
<path d="M463.195 388.376H185.458C163.944 388.376 146.506 370.936 146.506 349.424V190.233C146.506 168.72 163.946 151.281 185.458 151.281H463.194C484.708 151.281 502.146 168.721 502.146 190.233V349.423C502.147 370.936 484.707 388.376 463.195 388.376Z" fill="#E0E2E2"/>
<path d="M228.428 182.596C220.398 182.596 213.889 176.087 213.889 168.056V35.2852C213.889 27.2557 220.397 20.7461 228.428 20.7461C236.457 20.7461 242.967 27.2547 242.967 35.2852V168.057C242.967 176.087 236.458 182.596 228.428 182.596Z" fill="#34A8C0"/>
<path d="M420.225 182.596C412.195 182.596 405.686 176.087 405.686 168.056V35.2852C405.686 27.2557 412.194 20.7461 420.225 20.7461C428.254 20.7461 434.764 27.2547 434.764 35.2852V168.057C434.764 176.087 428.255 182.596 420.225 182.596Z" fill="#34A8C0"/>
<path d="M241.893 221.182H229.837V204.832H255.02C258.585 204.832 261.074 201.791 261.074 197.437C261.074 193.263 258.528 190.234 255.02 190.234H221.389C217.228 190.234 214.09 192.878 214.09 196.384V259.719C214.09 263.34 217.328 265.869 221.964 265.869C226.601 265.869 229.838 263.34 229.838 259.719V234.824H241.894C245.403 234.824 247.948 231.996 247.948 228.1C247.947 224.09 245.401 221.182 241.893 221.182Z" fill="#B5423C"/>
<path d="M314.698 190.234C299.281 190.234 290.439 199.042 290.439 214.396V242.278C290.439 257.633 299.281 266.44 314.698 266.44C330.175 266.44 339.053 257.633 339.053 242.278V214.396C339.053 199.042 330.175 190.234 314.698 190.234ZM323.303 214.396V242.278C323.303 248.803 320.569 251.842 314.698 251.842C308.812 251.842 306.187 248.893 306.187 242.278V214.396C306.187 207.781 308.811 204.832 314.698 204.832C320.57 204.832 323.303 207.872 323.303 214.396Z" fill="#B5423C"/>
<path d="M424.697 258.184C424.697 257.721 424.624 256.536 423.958 255.383L412.131 233.166C420.082 229.886 424.409 222.699 424.409 212.576C424.409 198.168 415.59 190.233 399.576 190.233H381.371C377.923 190.233 375.221 192.892 375.221 196.287V259.717C375.221 263.281 378.492 265.867 383 265.867C387.562 265.867 390.874 263.28 390.874 259.717V235.78H396.045L409.272 261.689C411.315 265.574 414.221 266.154 415.771 266.154C419.813 266.155 424.697 262.599 424.697 258.184ZM408.662 213.439C408.662 219.551 406.029 222.046 399.576 222.046H390.874V204.833H399.576C406.029 204.832 408.662 207.325 408.662 213.439Z" fill="#B5423C"/>
<path d="M199.842 307.515C193.17 304.816 189.396 303.096 189.396 299.117C189.396 295.186 192.485 293.194 198.577 293.194C203.108 293.194 205.538 294.443 207.491 295.447C208.88 296.161 210.19 296.835 211.799 296.835C216.375 296.835 218.812 292.04 218.812 288.577C218.812 279.155 200.649 278.883 198.578 278.883C186.526 278.883 173.648 284.451 173.648 300.076C173.648 314.303 184.211 318.758 192.699 322.34C200.195 325.502 204.789 327.729 204.789 333.421C204.789 339.824 198.977 340.78 195.512 340.78C189.813 340.78 187.128 338.347 184.758 336.201C183.135 334.732 181.456 333.211 179.127 333.211C175.071 333.211 171.924 337.649 171.924 341.469C171.924 349.541 184.579 355.571 195.895 355.571C211.094 355.571 220.536 346.68 220.536 332.365C220.535 315.881 208.575 311.046 199.842 307.515Z" fill="#B5423C"/>
<path d="M286.968 283.957C285.881 280.7 282.284 278.597 277.8 278.597C273.374 278.597 269.813 280.701 268.708 284.022L249.659 346.049C249.42 346.766 249.42 347.385 249.42 347.794C249.42 351.987 254.136 354.806 258.54 354.806C263 354.806 264.371 351.961 264.771 350.677L268.116 339.092H287.577L290.939 350.735C291.746 353.322 293.977 354.806 297.057 354.806C301.416 354.806 306.273 351.925 306.273 347.793C306.273 347.049 306.07 346.444 305.959 346.114L286.968 283.957ZM283.654 325.354H271.946L277.8 305.274L283.654 325.354Z" fill="#B5423C"/>
<path d="M381.585 340.205H359.469V285.224C359.469 281.603 356.304 279.171 351.595 279.171C346.886 279.171 343.721 281.603 343.721 285.224V348.654C343.721 352.161 346.859 354.804 351.02 354.804H381.585C384.981 354.804 387.447 351.735 387.447 347.506C387.448 343.277 384.982 340.205 381.585 340.205Z" fill="#B5423C"/>
<path d="M460.716 340.205H435.054V323.76H447.014C451.007 323.76 453.164 320.295 453.164 317.035C453.164 313.092 450.52 310.118 447.014 310.118H435.054V293.769H460.716C464.279 293.769 466.866 290.658 466.866 286.374C466.866 282.2 464.279 279.171 460.716 279.171H426.606C422.445 279.171 419.307 281.814 419.307 285.321V348.655C419.307 352.162 422.445 354.805 426.606 354.805H460.716C464.279 354.805 466.866 351.775 466.866 347.602C466.866 343.316 464.279 340.205 460.716 340.205Z" fill="#B5423C"/>
</svg>
