<svg width="575" height="575" viewBox="0 0 575 575" fill="none" xmlns="http://www.w3.org/2000/svg">
<path d="M287.5 575C446.282 575 575 446.282 575 287.5C575 128.718 446.282 0 287.5 0C128.718 0 0 128.718 0 287.5C0 446.282 128.718 575 287.5 575Z" fill="#FDBC6A"/>
<path d="M469.103 476.794H107.318V233.001L288.211 95.7808L469.103 233.001V476.794Z" fill="white"/>
<path d="M469.1 232.996V476.795H288.209V95.7764L469.1 232.996Z" fill="#9CFDFF"/>
<path d="M343.751 308.257H232.684V476.782H343.751V308.257Z" fill="#0088FF"/>
<path d="M343.736 308.257H288.209V476.796H343.736V308.257Z" fill="#004EB1"/>
<path d="M516.307 471.614H60.0977V524.839H516.307V471.614Z" fill="#60A5AA"/>
<path d="M516.321 471.614H288.209V524.84H516.321V471.614Z" fill="#0A4458"/>
<path d="M505.941 265.653L288.211 100.486L70.4802 265.653L35.7402 219.856L288.211 28.3354L540.681 219.856L505.941 265.653Z" fill="#E02424"/>
<path d="M540.684 219.863L505.942 265.65L469.1 237.709L288.209 100.49V28.3381L540.684 219.863Z" fill="#990011"/>
</svg>
