<svg width="561" height="561" viewBox="0 0 561 561" fill="none" xmlns="http://www.w3.org/2000/svg">
<circle cx="280.5" cy="280.5" r="280.5" fill="#094458"/>
<path d="M295.042 61.9771H87.9154C81.9114 61.9771 76.1533 64.3621 71.9079 68.6076C67.6624 72.8531 65.2773 78.6111 65.2773 84.6151V496.06C65.2776 502.064 67.6628 507.823 71.9084 512.068C76.154 516.314 81.9122 518.699 87.9163 518.699H295.042C301.046 518.699 306.804 516.314 311.049 512.068C315.295 507.823 317.68 502.064 317.681 496.06V84.616C317.681 78.6118 315.295 72.8535 311.05 68.6079C306.804 64.3622 301.046 61.9771 295.042 61.9771V61.9771Z" fill="#60A5AA"/>
<path d="M209.302 484.012C209.302 485.909 208.548 487.728 207.207 489.069C205.866 490.41 204.048 491.163 202.151 491.163H180.805C178.908 491.163 177.09 490.41 175.749 489.069C174.408 487.728 173.654 485.909 173.654 484.012C173.654 482.116 174.408 480.297 175.749 478.956C177.09 477.615 178.908 476.862 180.805 476.862H202.151C204.048 476.862 205.866 477.615 207.207 478.956C208.548 480.297 209.302 482.116 209.302 484.012V484.012Z" fill="#E1E1E1"/>
<path d="M504.636 185.509H233.395C223.805 185.509 216.031 193.282 216.031 202.872V377.804C216.031 387.393 223.805 395.167 233.395 395.167H504.636C514.225 395.167 521.999 387.393 521.999 377.804V202.872C521.999 193.282 514.225 185.509 504.636 185.509Z" fill="#E89434"/>
<path d="M514.962 391.462C517.152 389.787 518.927 387.63 520.148 385.158C521.369 382.685 522.003 379.965 522.001 377.208V203.468C522.001 201.109 521.537 198.774 520.634 196.595C519.732 194.416 518.409 192.436 516.741 190.769C515.073 189.101 513.094 187.778 510.915 186.876C508.736 185.973 506.4 185.509 504.042 185.509H330.262L514.597 391.327L514.962 391.462Z" fill="#FCBC6A"/>
<path d="M407.771 185.509H233.991C231.632 185.509 229.297 185.973 227.118 186.876C224.939 187.778 222.959 189.101 221.291 190.769C219.624 192.436 218.301 194.416 217.398 196.595C216.496 198.774 216.031 201.109 216.031 203.468V377.208C216.029 379.882 216.625 382.523 217.776 384.937C218.927 387.35 220.604 389.476 222.683 391.157L223.44 391.327L407.771 185.509Z" fill="#FCBC6A"/>
<path d="M504.04 185.509H233.991C231.632 185.509 229.297 185.973 227.118 186.876C224.939 187.778 222.959 189.101 221.291 190.769C219.624 192.436 218.301 194.416 217.398 196.595C216.496 198.774 216.031 201.109 216.031 203.468V210.372L345.632 299.677C352.509 304.415 360.664 306.952 369.015 306.952C377.367 306.952 385.521 304.415 392.398 299.677L521.999 210.372V203.468C521.999 198.705 520.107 194.137 516.739 190.769C513.371 187.401 508.803 185.509 504.04 185.509V185.509Z" fill="#F4D6B0"/>
<path d="M193.374 290.338C193.374 292.242 192.618 294.068 191.271 295.414C189.925 296.76 188.099 297.516 186.196 297.516H119.504C118.562 297.516 117.628 297.331 116.757 296.97C115.886 296.609 115.095 296.08 114.429 295.414C113.762 294.747 113.233 293.956 112.873 293.085C112.512 292.214 112.326 291.281 112.326 290.338C112.326 289.395 112.512 288.462 112.873 287.591C113.233 286.72 113.762 285.929 114.429 285.262C115.095 284.596 115.886 284.067 116.757 283.706C117.628 283.346 118.562 283.16 119.504 283.16H186.195C187.137 283.16 188.071 283.345 188.942 283.706C189.813 284.067 190.604 284.595 191.271 285.262C191.938 285.929 192.467 286.72 192.827 287.591C193.188 288.462 193.374 289.395 193.374 290.338V290.338ZM109.043 234.84H158.356C160.26 234.84 162.086 235.596 163.432 236.943C164.778 238.289 165.534 240.115 165.534 242.018C165.534 243.922 164.778 245.748 163.432 247.094C162.086 248.44 160.26 249.196 158.356 249.196H109.043C107.14 249.196 105.314 248.44 103.968 247.094C102.622 245.748 101.865 243.922 101.865 242.018C101.865 240.115 102.622 238.289 103.968 236.943C105.314 235.596 107.14 234.84 109.043 234.84ZM147.896 345.836H109.043C107.14 345.836 105.314 345.08 103.968 343.734C102.622 342.387 101.865 340.562 101.865 338.658C101.865 336.754 102.622 334.928 103.968 333.582C105.314 332.236 107.14 331.48 109.043 331.48H147.896C149.8 331.48 151.626 332.236 152.972 333.582C154.318 334.928 155.074 336.754 155.074 338.658C155.074 340.562 154.318 342.387 152.972 343.734C151.626 345.08 149.8 345.836 147.896 345.836V345.836Z" fill="#084557"/>
<path d="M142.016 112.032C139.89 112.032 137.851 111.187 136.348 109.684C134.845 108.181 134 106.142 134 104.016C134 101.89 134.845 99.8511 136.348 98.3478C137.851 96.8445 139.89 96 142.016 96H240.578C242.704 96 244.743 96.8445 246.246 98.3478C247.749 99.8511 248.594 101.89 248.594 104.016C248.594 106.142 247.749 108.181 246.246 109.684C244.743 111.187 242.704 112.032 240.578 112.032H142.016Z" fill="#E1E1E1"/>
</svg>
